<svg xmlns="http://www.w3.org/2000/svg" viewBox="0 0 1024 1024">
  <path fill="#181717" d="M512 0C229.2 0 0 229.2 0 512c0 227.1 147 419.6 351 487.7 26.4 4.9 36.1-11.5 36.1-25.4 0-12.5-0.5-54.2-0.7-98.3-143.2 31.1-173.4-58.3-173.4-58.3-23.4-59.6-57.1-75.4-57.1-75.4-46.6-31.9 3.5-31.2 3.5-31.2 51.5 3.6 78.5 52.8 78.5 52.8 45.7 78.3 119.8 55.6 149.1 42.4 4.6-33.1 17.8-55.7 32.4-68.5-113.3-12.9-232.2-56.7-232.2-253.1 0-55.9 20-101.4 52.9-137.1-5.3-13.5-22.9-65 4.9-135.6 0 0 42.8-13.7 140.2 52.4 40.6-11.2 84-16.8 127.1-17.1 43.1 0.3 86.6 5.9 127.2 17.1 97.3-66.1 140.1-52.4 140.1-52.4 27.9 70.6 10.4 122.1 5.1 135.6 33 35.7 52.8 81.2 52.8 137.1 0 196.9-119.1 240-232.8 252.6 18.3 15.8 34.5 47 34.5 94.6 0 68.5-0.6 123.7-0.6 140.5 0 13.9 9.5 30.5 36.4 25.3C877 931.5 1024 739.1 1024 512 1024 229.2 794.8 0 512 0z"/>
</svg>